<svg viewBox="0 0 17 16" xmlns="http://www.w3.org/2000/svg"><path d="m11.969 1h-8.887v1.031l-3.0898125.0000001v4.836c0 1.869 2.0858125 3.4069999 4.1328125 3.5669999.672.72 1.854 1.243 2.906 1.466v1.264c-1.006.309-2.80299997 1.0349902-2.90599997 1.8259902h6.90405227c-.104-.791-2.0840523-1.5179902-3.0920523-1.8259902v-1.264c1.056-.223 2.291-.746 2.964-1.466 2.046-.16 4.04-1.698 4.04-3.567v-4.836h-2.972zm-11.02799999 1.9473877h2.069l-.00000001 4.1656123c0 .822.212 1.604.585 2.308-1.548-.493-2.654-1.763-2.654-3.249zm8.10419679 5.0806123-1.54436291-.851-1.54603069.851.2951968-1.8-1.25-1.274 1.72698466-.263.77384923-1.636.77218145 1.636 1.72698466.263-1.24916611 1.274zm2.2948032 1.526c.375-.736.59-1.55.59-2.411v-4.16875684h2.074v3.18575684c0 1.553-1.111 2.879-2.664 3.394z" fill="#434343" fill-rule="evenodd"/></svg>