<svg fill="none" height="24" viewBox="0 0 24 24" width="24" xmlns="http://www.w3.org/2000/svg"><g stroke="#141b34" stroke-width="1.5"><circle cx="17" cy="18" r="2"/><circle cx="7" cy="18" r="2"/><path d="m19 11h3v2c0 2.357 0 3.5355-.7322 4.2678-.4869.4868-1.1711.65-2.2678.7046m-14 0c-1.09672-.0546-1.7809-.2178-2.26777-.7046-.73223-.7323-.73223-1.9108-.73223-4.2678v-4c0-2.35702 0-3.53553.73223-4.26777.73224-.73223 1.91075-.73223 4.26777-.73223h3.3c1.1168 0 1.6752 0 2.1271.14683.9133.29675 1.6293 1.01281 1.9261 1.92612.1468.4519.1468 1.01028.1468 2.12705 0 1.22079 0 1.8312-.3343 2.244-.0659.0814-.1403.1558-.2217.2217-.4128.3343-1.0232.3343-2.244.3343h-3.7m7 7h-6" stroke-linecap="round" stroke-linejoin="round"/></g><path d="m8.82843 12-.48692.5705zm1.65847.4295c.3151.269.3525.7424.0836 1.0574-.269.3151-.74236.3525-1.05741.0836zm-.97381-3.99995c.31505-.26892.78841-.23151 1.05741.08354.2689.31505.2315.78845-.0836 1.05736zm-.68466 1.57045-.48692-.57045zm.48691 1.4295 1.17156 1-.97381 1.141-1.17158-1zm1.17156-1.85905-1.17156 1.00005-.97383-1.14095 1.17158-1zm-2.14539 3.00005c-.25933-.2214-.51361-.4363-.69357-.6376-.18951-.212-.39794-.5174-.39794-.9329h1.5c0-.1226-.07036-.1637.01628-.0668.09618.1076.25611.2463.54906.4963zm.97383-2c-.29295.25-.45288.3887-.54906.4963-.08664.0969-.01628.0558-.01628-.0668h-1.5c0-.4155.20843-.7209.39794-.9329.17996-.20131.43424-.4162.69357-.63755z" fill="#141b34"/><path d="m14.5 6h1.8212c1.4554 0 2.183 0 2.7752.35371s.9372.9944 1.6272 2.27579l1.2764 2.3705" stroke="#141b34" stroke-linecap="round" stroke-linejoin="round" stroke-width="1.5"/></svg>